<svg width="66" height="67" viewBox="0 0 66 67" fill="none" xmlns="http://www.w3.org/2000/svg">
<path d="M52.2058 0.946533C52.6677 1.24147 53.0035 1.61885 52.8007 2.20377C52.6002 2.78194 52.1071 2.85884 51.5587 2.85865C35.3727 2.8525 19.1864 2.85369 3.00041 2.85369C2.73069 2.85369 2.46096 2.85369 2.15517 2.85369C2.15517 23.2931 2.15517 43.6669 2.15517 64.0886C22.5478 64.0886 42.9337 64.0886 63.3562 64.0886C63.3562 52.8269 63.3562 41.5839 63.3562 30.2863C62.6366 30.2863 61.9113 30.2863 61.0948 30.2863C61.0948 30.8914 61.0962 31.4969 61.0946 32.1024C61.0904 33.659 60.3183 34.4496 58.7515 34.4536C54.8957 34.4631 51.0399 34.457 47.1839 34.457C46.9332 34.457 46.6823 34.457 46.3913 34.457C46.3913 35.2214 46.3913 35.9334 46.3913 36.7585C46.626 36.7585 46.8676 36.7585 47.1092 36.7585C50.9438 36.7585 54.7786 36.7572 58.6132 36.7591C60.3639 36.7601 61.0944 37.4856 61.0946 39.2165C61.0952 45.9334 61.0952 52.6503 61.0946 59.3671C61.0944 61.0933 60.3476 61.8378 58.6163 61.838C50.502 61.8384 42.3879 61.8384 34.2736 61.838C32.5421 61.838 31.8038 61.1009 31.8021 59.3652C31.7995 56.9496 31.8013 54.534 31.8013 52.1185C31.8013 51.8683 31.8013 51.6182 31.8013 51.3318C31.0131 51.3318 30.2844 51.3318 29.4873 51.3318C29.4873 51.5914 29.4873 51.8192 29.4873 52.0469C29.4873 54.5261 29.4901 57.0051 29.4861 59.4843C29.4835 61.0638 28.7188 61.8368 27.1589 61.8372C20.3581 61.839 13.5575 61.839 6.75673 61.8372C5.20597 61.8368 4.41721 61.0426 4.41681 59.4837C4.41523 52.682 4.41523 45.8805 4.41701 39.0788C4.41741 37.553 5.1917 36.7623 6.7173 36.7611C13.5393 36.7554 20.3611 36.7558 27.183 36.7609C28.7281 36.7621 29.4776 37.523 29.4865 39.0609C29.4901 39.6704 29.4871 40.2799 29.4871 40.9304C30.266 40.9304 30.9741 40.9304 31.8013 40.9304C31.8013 40.5566 31.8227 40.185 31.7977 39.8165C31.6457 37.5639 32.377 36.58 34.8852 36.755C35.2369 36.7796 35.5917 36.7583 35.9837 36.7583C35.9837 35.9673 35.9837 35.2589 35.9837 34.4564C35.3507 34.4564 34.744 34.4623 34.1378 34.4552C32.567 34.4369 31.8139 33.6756 31.8015 32.1013C31.785 30.049 31.785 30.049 29.4871 30.2857C29.4871 30.8702 29.4889 31.4733 29.4867 32.0763C29.4812 33.6952 28.7413 34.4401 27.1212 34.4554C26.8037 34.4583 26.4839 34.4698 26.1688 34.4387C25.5554 34.3785 25.2149 34.0005 25.2395 33.4465C25.2627 32.9208 25.6065 32.597 26.2023 32.5561C26.4343 32.5403 26.6682 32.5542 26.901 32.5484C27.1073 32.5433 27.3135 32.5298 27.5804 32.5171C27.5804 31.5118 27.5753 30.5616 27.5818 29.6114C27.5885 28.6294 27.8947 28.3292 28.8894 28.3256C30.0969 28.3212 31.3046 28.3173 32.5121 28.3272C33.3798 28.3343 33.6935 28.6509 33.7064 29.5263C33.7185 30.3525 33.7268 31.1796 33.7028 32.0051C33.6909 32.4182 33.8316 32.5678 34.2486 32.5561C35.0954 32.5326 35.9434 32.5403 36.7907 32.5532C37.5838 32.5653 37.9147 32.8842 37.9251 33.6786C37.9417 34.9497 37.9397 36.2214 37.926 37.4925C37.9171 38.3159 37.5804 38.6566 36.7605 38.6709C35.771 38.6881 34.7807 38.675 33.7093 38.675C33.7093 39.6724 33.7129 40.5978 33.7084 41.5233C33.7032 42.5869 33.4065 42.884 32.3482 42.8867C31.1619 42.8899 29.9754 42.8953 28.7891 42.8846C27.9371 42.8768 27.5941 42.5343 27.5834 41.6826C27.5713 40.7116 27.5806 39.7404 27.5806 38.7232C24.0001 38.7232 20.4742 38.7232 16.8626 38.7232C16.8626 38.9432 16.8626 39.1682 16.8626 39.3931C16.8626 41.8087 16.8628 44.2242 16.8626 46.6398C16.8624 48.5008 16.168 49.1882 14.2854 49.1888C11.8914 49.1896 9.49738 49.189 7.10335 49.189C6.87386 49.189 6.64436 49.189 6.36909 49.189C6.36909 52.7726 6.36909 56.2975 6.36909 59.8767C9.55148 59.8767 12.7341 59.8767 15.9963 59.8767C15.9963 59.2014 15.9985 58.5305 15.9957 57.8596C15.993 57.1639 16.2351 56.5918 16.7653 56.1197C16.9258 55.9768 17.0376 55.7033 17.0495 55.4828C17.0907 54.7221 17.0411 53.9559 17.0925 53.1963C17.2399 51.0107 19.0634 49.3588 21.2513 49.3935C23.4222 49.428 25.1935 51.173 25.2662 53.3543C25.2789 53.7353 25.2694 54.117 25.275 54.4984C25.2855 55.2379 25.1507 55.9693 25.9137 56.5449C26.2187 56.7748 26.2744 57.4186 26.322 57.8865C26.3877 58.5337 26.3384 59.1923 26.3384 59.8882C26.7482 59.8882 27.0992 59.8882 27.5374 59.8882C27.5509 59.6662 27.578 59.424 27.5782 59.182C27.5812 56.3851 27.579 53.5882 27.5808 50.7913C27.5816 49.6728 27.8594 49.3941 28.9615 49.3931C30.1056 49.3921 31.2495 49.3913 32.3936 49.3933C33.4097 49.3951 33.7062 49.6898 33.7076 50.7247C33.7115 53.5216 33.7091 56.3185 33.7091 59.1154C33.7091 59.3628 33.7091 59.6099 33.7091 59.894C39.4223 59.894 45.0479 59.894 50.719 59.894C50.719 52.8384 50.719 45.795 50.719 38.6659C49.9838 38.6659 49.2703 38.6659 48.5569 38.6659C47.5612 38.6657 46.5651 38.6772 45.5697 38.6615C44.7799 38.6493 44.4512 38.3125 44.4458 37.529C44.4373 36.3001 44.4414 35.071 44.4438 33.8421C44.4458 32.8418 44.727 32.5522 45.7217 32.5514C49.9378 32.5482 54.1537 32.55 58.3698 32.55C58.6185 32.55 58.8674 32.55 59.1873 32.55C59.1873 31.5005 59.1839 30.532 59.1883 29.5636C59.1923 28.651 59.4973 28.3343 60.4016 28.3276C61.6303 28.3185 62.8592 28.3179 64.0879 28.3278C64.9807 28.3349 65.2978 28.6651 65.298 29.5743C65.2996 40.995 65.3002 52.416 65.2976 63.8367C65.2972 65.2331 64.4831 66.0426 63.081 66.0428C42.8695 66.0448 22.658 66.041 2.4465 66.0525C1.30953 66.0531 0.64285 65.4862 0.211014 64.5184C0.211014 43.8365 0.211014 23.1545 0.211014 2.47273C0.502736 1.74729 1.01107 1.23869 1.73661 0.94693C18.5598 0.946533 35.3828 0.946533 52.2058 0.946533ZM59.1467 55.6874C59.1467 51.3831 59.1467 47.1585 59.1467 42.9232C56.9796 42.9232 54.8539 42.9232 52.731 42.9232C52.731 47.2033 52.731 51.4406 52.731 55.6874C54.8975 55.6874 57.0051 55.6874 59.1467 55.6874ZM6.35859 38.7028C6.35859 41.5944 6.35859 44.3997 6.35859 47.2265C9.23221 47.2265 12.0702 47.2265 14.9101 47.2265C14.9101 44.3481 14.9101 41.5254 14.9101 38.7127C13.7947 38.7127 12.7259 38.7127 11.6005 38.7127C11.6005 39.3473 11.6048 39.9358 11.5995 40.5243C11.5918 41.381 11.2596 41.8125 10.6252 41.8021C10.0113 41.7922 9.7025 41.3825 9.69497 40.5536C9.68962 39.9453 9.69397 39.337 9.69397 38.7028C8.54294 38.7028 7.47355 38.7028 6.35859 38.7028ZM23.3613 55.6854C23.3613 54.8954 23.3833 54.1394 23.356 53.3854C23.3175 52.3276 22.5141 51.4662 21.4699 51.3155C20.4471 51.1679 19.3222 51.7863 19.1147 52.8053C18.926 53.7319 18.9839 54.7089 18.932 55.6854C20.4873 55.6854 21.8926 55.6854 23.3613 55.6854ZM24.3802 59.9114C24.3802 59.1218 24.3802 58.3973 24.3802 57.6742C22.2057 57.6742 20.0838 57.6742 17.9542 57.6742C17.9542 58.4445 17.9542 59.1689 17.9542 59.9114C20.1135 59.9114 22.2222 59.9114 24.3802 59.9114ZM52.6955 40.9306C54.8834 40.9306 57.0073 40.9306 59.1336 40.9306C59.1336 40.1624 59.1336 39.4379 59.1336 38.7216C56.9556 38.7216 54.8323 38.7216 52.6955 38.7216C52.6955 39.472 52.6955 40.1665 52.6955 40.9306ZM59.1637 57.6671C56.9895 57.6671 54.864 57.6671 52.7212 57.6671C52.7212 58.4306 52.7212 59.1553 52.7212 59.8775C54.8941 59.8775 57.0172 59.8775 59.1637 59.8775C59.1637 59.1305 59.1637 58.4365 59.1637 57.6671Z" fill="white"/>
<path d="M63.7749 0.946533C64.9124 1.42263 65.3262 2.27017 65.3175 3.50183C65.2783 9.13789 65.3005 14.7741 65.3001 20.4104C65.3001 21.5368 65.0363 21.8058 63.9296 21.8074C62.7431 21.8089 61.5568 21.8123 60.3705 21.806C59.5096 21.8012 59.1907 21.4801 59.1901 20.6098C59.187 16.3721 59.1885 12.1342 59.1885 7.89651C59.1885 7.64676 59.1885 7.39702 59.1885 7.10427C57.6972 7.10427 56.2701 7.10427 54.761 7.10427C54.761 7.80791 54.7677 8.49965 54.7594 9.1914C54.7441 10.4554 53.9592 11.2603 52.6969 11.2641C49.2224 11.2746 45.7479 11.2752 42.2734 11.2635C41.0481 11.2593 40.2587 10.4528 40.2395 9.22847C40.2286 8.53375 40.2375 7.83883 40.2375 7.10209C38.0536 7.10209 35.9285 7.10209 33.7102 7.10209C33.7102 7.37522 33.7102 7.62159 33.7102 7.86796C33.7102 12.021 33.7108 16.1741 33.7096 20.3269C33.7092 21.5751 33.475 21.807 32.2274 21.8078C31.1682 21.8083 30.1089 21.8085 29.0496 21.8078C27.8221 21.807 27.5813 21.5618 27.5811 20.3071C27.5805 16.1753 27.5809 12.0434 27.5809 7.91157C27.5809 7.65965 27.5809 7.40792 27.5809 7.10784C26.804 7.10784 26.0779 7.10784 25.275 7.10784C25.275 7.37284 25.275 7.6204 25.275 7.86816C25.275 13.8433 25.2758 19.8187 25.2745 25.7939C25.2741 27.3891 24.5333 28.1379 22.9538 28.1389C18.9497 28.1409 14.9455 28.1413 10.9414 28.1387C9.41206 28.1377 8.62706 27.358 8.62647 25.834C8.62389 19.8588 8.62528 13.8834 8.62528 7.9082C8.62528 7.65588 8.62528 7.40376 8.62528 7.10566C7.85772 7.10566 7.13159 7.10566 6.36443 7.10566C6.36443 15.5749 6.36443 24.0172 6.36443 32.55C6.6516 32.55 6.92092 32.55 7.19005 32.55C12.0839 32.55 16.978 32.5496 21.8719 32.5504C22.8461 32.5506 23.3125 32.8573 23.314 33.4931C23.3156 34.13 22.8354 34.4562 21.8776 34.4564C16.8777 34.4578 11.8778 34.4596 6.87812 34.4558C5.14859 34.4544 4.41711 33.7084 4.41711 31.9673C4.41671 23.8521 4.41671 15.7366 4.41711 7.62139C4.4173 5.89322 5.16088 5.15271 6.89575 5.15271C13.6117 5.15231 20.3277 5.15212 27.0436 5.15271C28.7478 5.15291 29.4866 5.88469 29.4874 7.57937C29.4894 11.4145 29.488 15.2496 29.488 19.085C29.488 19.3337 29.488 19.5827 29.488 19.8659C30.2692 19.8659 30.9803 19.8659 31.7684 19.8659C31.7797 19.6211 31.8004 19.3783 31.8006 19.1353C31.8025 15.3002 31.8006 11.465 31.8027 7.62972C31.8037 5.88826 32.5382 5.15291 34.2689 5.15271C42.383 5.15231 50.4973 5.15231 58.6115 5.15271C60.3487 5.15271 61.0947 5.89282 61.0951 7.61683C61.0958 11.452 61.0952 15.2871 61.0952 19.1224C61.0952 19.3527 61.0952 19.5831 61.0952 19.8568C61.863 19.8568 62.5903 19.8568 63.3559 19.8568C63.3559 14.2221 63.3559 8.5942 63.3559 2.88283C63.1478 2.87371 62.9256 2.85567 62.7035 2.85548C60.5001 2.8533 58.2967 2.84913 56.0936 2.85786C55.5569 2.86004 55.0668 2.81247 54.8409 2.22399C54.6106 1.62441 54.9788 1.27734 55.3843 0.947128C58.1814 0.946533 60.9781 0.946533 63.7749 0.946533ZM10.5673 26.1891C14.8684 26.1891 19.091 26.1891 23.3396 26.1891C23.3396 22.6192 23.3396 19.0921 23.3396 15.5291C19.0714 15.5291 14.8321 15.5291 10.5673 15.5291C10.5673 19.0992 10.5673 22.6232 10.5673 26.1891ZM23.3309 13.5427C23.3309 11.3828 23.3309 9.25602 23.3309 7.05908C22.948 7.05908 22.5941 7.05908 22.2401 7.05908C21.8659 7.05908 21.492 7.05908 21.0677 7.05908C21.0677 7.81504 21.073 8.48895 21.0665 9.16266C21.054 10.4609 20.2678 11.254 18.9662 11.2653C17.6952 11.2762 16.4241 11.27 15.1532 11.2674C13.6 11.2641 12.8497 10.5212 12.8406 8.97892C12.8368 8.35397 12.84 7.72882 12.84 7.09456C12.0253 7.09456 11.3152 7.09456 10.5736 7.09456C10.5736 9.25661 10.5736 11.383 10.5736 13.5425C14.8408 13.5427 19.067 13.5427 23.3309 13.5427ZM52.8275 7.09951C49.2395 7.09951 45.7188 7.09951 42.1914 7.09951C42.1914 7.86717 42.1914 8.59341 42.1914 9.31984C45.7594 9.31984 49.2801 9.31984 52.8275 9.31984C52.8275 8.56764 52.8275 7.85627 52.8275 7.09951ZM19.133 7.11121C17.6441 7.11121 16.2198 7.11121 14.7861 7.11121C14.7861 7.8747 14.7861 8.58528 14.7861 9.32103C16.2523 9.32103 17.6788 9.32103 19.133 9.32103C19.133 8.56942 19.133 7.85746 19.133 7.11121Z" fill="white"/>
<path d="M47.5039 23.9266C45.1531 23.9266 42.8025 23.9292 40.4516 23.9258C38.8824 23.9236 38.1127 23.1518 38.1109 21.5834C38.1085 19.6561 38.1058 17.7285 38.1119 15.8011C38.1165 14.396 38.9104 13.5812 40.3115 13.5786C45.0978 13.5699 49.8839 13.5705 54.6701 13.5782C56.0818 13.5806 56.8775 14.3828 56.8836 15.7884C56.8922 17.7582 56.8916 19.728 56.8838 21.6978C56.8781 23.1284 56.0725 23.9207 54.6198 23.9246C52.2478 23.9314 49.8758 23.9266 47.5039 23.9266ZM40.0642 15.5201C40.0642 17.7063 40.0642 19.8305 40.0642 21.9683C45.0487 21.9683 49.9861 21.9683 54.9296 21.9683C54.9296 19.7936 54.9296 17.6708 54.9296 15.5189C54.1705 15.5189 53.461 15.5189 52.6713 15.5189C52.6713 16.2031 52.6788 16.8534 52.6697 17.5037C52.6501 18.8892 51.8823 19.6897 50.5153 19.702C48.5051 19.7199 46.4946 19.7191 44.4844 19.7022C43.1225 19.6909 42.3387 18.8791 42.3229 17.5089C42.3153 16.8582 42.3215 16.2074 42.3215 15.5203C41.5397 15.5201 40.8298 15.5201 40.0642 15.5201ZM50.7644 17.7717C50.7644 17.1386 50.7416 16.5718 50.7719 16.0081C50.7949 15.5795 50.6221 15.4715 50.2196 15.4753C48.3828 15.4921 46.5459 15.4814 44.7092 15.4854C44.5683 15.4858 44.4275 15.5226 44.2839 15.5431C44.2839 16.3012 44.2839 17.0231 44.2839 17.7719C46.4436 17.7717 48.5481 17.7717 50.7644 17.7717Z" fill="white"/>
<path d="M54.9859 46.113C54.9805 45.0913 55.2378 44.6857 55.896 44.6699C56.5796 44.6534 56.8886 45.1032 56.8858 46.1202C56.8853 46.3519 56.9003 46.5907 56.8514 46.8137C56.7372 47.3334 56.3975 47.637 55.858 47.5944C55.3272 47.5526 55.0219 47.2277 54.9877 46.6831C54.976 46.4938 54.9859 46.3031 54.9859 46.113Z" fill="white"/>
<path d="M54.981 52.4651C54.9814 52.3172 54.9762 52.1691 54.9821 52.0215C55.0083 51.3732 55.3665 50.9813 55.9264 50.9839C56.456 50.9863 56.8354 51.366 56.8796 51.9654C56.9012 52.2595 56.8966 52.557 56.8834 52.8521C56.8536 53.5157 56.4425 53.9545 55.8882 53.9309C55.3451 53.908 55.0024 53.4989 54.9812 52.8452C54.977 52.7187 54.9806 52.5919 54.981 52.4651Z" fill="white"/>
</svg>
