<svg width="346" height="496" viewBox="0 0 346 496" fill="none" xmlns="http://www.w3.org/2000/svg">
<path fill-rule="evenodd" clip-rule="evenodd" d="M744.095 284.641C674.945 203.477 571.984 152 457 152C248.789 152 80 320.789 80 529C80 561.584 84.1336 593.202 91.9051 623.359C161.055 704.523 264.016 756 379 756C587.211 756 756 587.211 756 379C756 346.416 751.866 314.798 744.095 284.641ZM747.039 288.139C754.201 317.248 758 347.681 758 379C758 588.316 588.316 758 379 758C264.888 758 162.556 707.569 93.0732 627.779C95.1769 635.548 97.5228 643.218 100.102 650.78C168.652 744.859 279.686 806 405 806C613.211 806 782 637.211 782 429C782 386.386 774.93 345.423 761.898 307.22C757.146 300.698 752.19 294.335 747.039 288.139ZM742.927 280.221C673.445 200.431 571.112 150 457 150C247.684 150 78 319.684 78 529C78 560.319 81.7989 590.751 88.9612 619.861C83.8103 613.665 78.8542 607.301 74.1022 600.78C61.0704 562.577 54 521.614 54 479C54 270.789 222.789 102 431 102C556.314 102 667.348 163.141 735.898 257.22C738.477 264.782 740.823 272.451 742.927 280.221ZM90.0831 624.304C91.9158 631.379 93.9477 638.375 96.1726 645.284C92.0316 639.382 88.0554 633.356 84.2508 627.213C81.43 620.622 78.7916 613.934 76.342 607.157C80.759 613.007 85.3417 618.725 90.0831 624.304ZM102.342 657.157C171.521 748.781 281.345 808 405 808C614.316 808 784 638.316 784 429C784 388.434 777.627 349.357 765.827 312.716C769.968 318.618 773.945 324.644 777.749 330.787C797.22 376.282 808 426.382 808 479C808 687.211 639.211 856 431 856C295.505 856 176.704 784.52 110.251 677.213C107.43 670.622 104.792 663.934 102.342 657.157ZM103.404 665.705C101.616 661.084 99.9163 656.418 98.3064 651.711C95.3747 647.681 92.5205 643.591 89.746 639.443C93.9624 648.395 98.5207 657.155 103.404 665.705ZM108.47 678.137C166.385 813.306 300.634 908 457 908C666.316 908 836 738.316 836 529C836 455.952 815.334 387.73 779.53 329.863C772.086 312.49 763.381 295.785 753.53 279.863C746.086 262.49 737.381 245.785 727.53 229.864C669.615 94.6936 535.366 0 379 0C169.684 0 0 169.684 0 379C0 452.048 20.6659 520.27 56.4702 578.137C63.9142 595.51 72.6192 612.215 82.4702 628.137C89.9142 645.51 98.6192 662.215 108.47 678.137ZM115.746 689.443C176.02 817.42 306.166 906 457 906C665.211 906 834 737.211 834 529C834 461.072 816.035 397.339 784.596 342.295C801.003 384.703 810 430.801 810 479C810 688.316 640.316 858 431 858C299.547 858 183.725 791.077 115.746 689.443ZM772.254 318.557C769.479 314.409 766.625 310.319 763.694 306.289C762.084 301.582 760.384 296.916 758.596 292.295C763.479 300.845 768.038 309.605 772.254 318.557ZM759.658 300.843C757.208 294.066 754.57 287.378 751.749 280.787C747.945 274.644 743.968 268.618 739.827 262.716C742.052 269.625 744.084 276.62 745.917 283.696C750.658 289.275 755.241 294.993 759.658 300.843ZM431 100C554.655 100 664.479 159.219 733.658 250.843C731.208 244.066 728.57 237.378 725.749 230.787C659.295 123.48 540.495 52 405 52C196.789 52 28 220.789 28 429C28 481.618 38.7796 531.718 58.2508 577.213C62.0554 583.356 66.0316 589.382 70.1727 595.284C58.3731 558.642 52 519.566 52 479C52 269.684 221.684 100 431 100ZM77.4041 615.705C75.6162 611.084 73.9163 606.418 72.3064 601.711C69.3747 597.681 66.5205 593.591 63.746 589.443C67.9624 598.395 72.5207 607.155 77.4041 615.705ZM732.596 242.295C737.479 250.845 742.038 259.605 746.254 268.557C743.479 264.409 740.625 260.319 737.694 256.289C736.084 251.582 734.384 246.916 732.596 242.295ZM720.254 218.557C652.275 116.923 536.453 50 405 50C195.684 50 26 219.684 26 429C26 477.199 34.9973 523.297 51.4041 565.705C19.9654 510.661 2 446.928 2 379C2 170.789 170.789 2 379 2C529.834 2 659.98 90.5798 720.254 218.557Z" fill="white" fill-opacity="0.1"/>
</svg>
