<svg width="16" height="10" viewBox="0 0 16 10" fill="none" xmlns="http://www.w3.org/2000/svg">
<path d="M3.85227 9H0.758523V0.272727H3.87784C4.75568 0.272727 5.51136 0.447443 6.14489 0.796875C6.77841 1.14347 7.26563 1.64205 7.60653 2.29261C7.95028 2.94318 8.12216 3.72159 8.12216 4.62784C8.12216 5.53693 7.95028 6.31818 7.60653 6.97159C7.26563 7.625 6.77557 8.12642 6.13636 8.47585C5.5 8.82528 4.73864 9 3.85227 9ZM2.60369 7.41903H3.77557C4.32102 7.41903 4.77983 7.32244 5.15199 7.12926C5.52699 6.93324 5.80824 6.63068 5.99574 6.22159C6.18608 5.80966 6.28125 5.27841 6.28125 4.62784C6.28125 3.98295 6.18608 3.45597 5.99574 3.04688C5.80824 2.63778 5.52841 2.33665 5.15625 2.14347C4.78409 1.95028 4.32528 1.85369 3.77983 1.85369H2.60369V7.41903ZM14.56 2.45455C14.5089 2.02273 14.3015 1.6875 13.9379 1.44886C13.5742 1.21023 13.1282 1.09091 12.5998 1.09091C12.2134 1.09091 11.8754 1.15341 11.5856 1.27841C11.2987 1.40341 11.0742 1.57528 10.9123 1.79403C10.7532 2.01278 10.6737 2.26136 10.6737 2.53977C10.6737 2.77273 10.729 2.97301 10.8398 3.14062C10.9535 3.3054 11.0984 3.44318 11.2745 3.55398C11.4506 3.66193 11.6353 3.75142 11.8285 3.82244C12.0217 3.89062 12.1992 3.94602 12.3612 3.98864L13.2475 4.22727C13.4748 4.28693 13.7276 4.36932 14.006 4.47443C14.2873 4.57955 14.5558 4.72301 14.8114 4.90483C15.07 5.08381 15.283 5.31392 15.4506 5.59517C15.6183 5.87642 15.7021 6.22159 15.7021 6.63068C15.7021 7.10227 15.5785 7.52841 15.3313 7.90909C15.087 8.28977 14.729 8.59233 14.2575 8.81676C13.7887 9.04119 13.2191 9.15341 12.5487 9.15341C11.9237 9.15341 11.3825 9.05256 10.9251 8.85085C10.4705 8.64915 10.1126 8.3679 9.85121 8.0071C9.59268 7.64631 9.44638 7.22727 9.41229 6.75H10.5032C10.5316 7.07955 10.6424 7.35227 10.8356 7.56818C11.0316 7.78125 11.2788 7.94034 11.5771 8.04545C11.8782 8.14773 12.2021 8.19886 12.5487 8.19886C12.9521 8.19886 13.3143 8.13352 13.6353 8.00284C13.9563 7.86932 14.2106 7.68466 14.3981 7.44886C14.5856 7.21023 14.6793 6.93182 14.6793 6.61364C14.6793 6.32386 14.5984 6.08807 14.4364 5.90625C14.2745 5.72443 14.0614 5.5767 13.7972 5.46307C13.533 5.34943 13.2475 5.25 12.9407 5.16477L11.8668 4.85795C11.185 4.66193 10.6452 4.3821 10.2475 4.01847C9.84979 3.65483 9.65092 3.17898 9.65092 2.59091C9.65092 2.10227 9.78303 1.67614 10.0472 1.3125C10.3143 0.946023 10.6722 0.661932 11.1211 0.460227C11.5728 0.255682 12.0771 0.153409 12.6339 0.153409C13.1964 0.153409 13.6964 0.254261 14.1339 0.455966C14.5714 0.654829 14.918 0.927556 15.1737 1.27415C15.4322 1.62074 15.5685 2.0142 15.5827 2.45455H14.56Z" fill="#84BE63"/>
</svg>
