<svg width="66" height="66" viewBox="0 0 66 66" fill="none" xmlns="http://www.w3.org/2000/svg">
<g clip-path="url(#clip0_1_1446)">
<path d="M63.5785 48.4646C61.0884 48.4646 58.684 48.4646 56.2291 48.4646C56.2291 52.3782 56.2291 56.2771 56.2291 60.2126C58.6554 60.2126 61.0589 60.2126 63.5795 60.2126C63.5795 59.8012 63.5805 59.3907 63.5793 58.98C63.5778 58.4811 63.7246 58.0701 64.3045 58.0686C64.8728 58.0672 65.0452 58.45 65.0436 58.9638C65.038 60.5716 65.0473 62.1796 65.0386 63.7875C65.0352 64.4279 64.7936 64.6605 64.1616 64.6831C63.9925 64.6892 63.8232 64.6846 63.6539 64.6846C48.8252 64.6846 33.9963 64.6848 19.1676 64.6839C18.9139 64.6839 18.6094 64.7602 18.4192 64.6478C18.1666 64.4986 17.8492 64.2012 17.8448 63.9623C17.8405 63.7272 18.1508 63.4118 18.4012 63.2697C18.6132 63.1495 18.9372 63.2182 19.2115 63.218C33.7018 63.2167 48.1921 63.2168 62.6824 63.2168C62.952 63.2168 63.2214 63.2168 63.5342 63.2168C63.5342 62.6957 63.5342 62.2447 63.5342 61.7689C43.3636 61.7689 23.2308 61.7689 3.0547 61.7689C3.0547 62.2379 3.0547 62.6892 3.0547 63.2168C3.34038 63.2168 3.58809 63.2168 3.83563 63.2168C7.07211 63.2168 10.3088 63.2162 13.5452 63.2182C13.7773 63.2184 14.0659 63.1561 14.228 63.268C14.4718 63.4362 14.7839 63.738 14.776 63.9732C14.7678 64.2119 14.4255 64.461 14.1907 64.6594C14.1022 64.7341 13.9045 64.6836 13.7565 64.6838C10.0546 64.6844 6.35272 64.6855 2.65084 64.6836C1.72291 64.6831 1.54861 64.5057 1.54861 63.5664C1.5476 55.9501 1.54777 48.3335 1.54861 40.7171C1.54878 39.765 1.74393 39.5681 2.69797 39.5656C4.10962 39.5618 5.52109 39.5645 7.09941 39.5645C5.71523 38.021 6.00244 36.2472 5.98243 34.5322C5.97565 33.9561 6.2632 33.673 6.8378 33.6782C6.9224 33.6791 7.00921 33.6648 7.09127 33.6792C8.7179 33.9627 10.0065 33.4358 10.9546 32.0796C11.0142 31.9943 11.101 31.9275 11.1772 31.8541C11.635 31.4126 12.0763 31.3434 12.3879 31.6959C12.7931 32.1545 12.5973 32.5558 12.2075 32.9022C11.9769 33.1072 11.7229 33.2859 11.4795 33.4765C11.5256 33.5434 11.5715 33.6104 11.6177 33.6774C12.3698 33.6774 13.1219 33.6711 13.8738 33.6792C14.5941 33.6869 14.8224 33.9063 14.8326 34.6304C14.8429 35.3705 14.9226 36.129 14.7919 36.8465C14.6263 37.7563 14.279 38.6332 14.0103 39.5239C16.7458 39.5239 19.6262 39.5239 22.4149 39.5239C22.3261 38.5652 22.2394 37.63 22.1489 36.6529C21.6107 36.5485 20.7339 36.8075 20.7661 35.8447C20.7949 34.9847 21.6035 35.2074 22.125 35.1063C22.1636 35.0504 22.2053 35.0178 22.2082 34.9819C22.3142 33.6772 22.3137 33.677 23.6487 33.677C25.7217 33.677 27.7948 33.6764 29.8678 33.6774C30.909 33.6779 31.026 33.7896 31.0877 34.8216C31.0927 34.903 31.1122 34.9834 31.1301 35.0977C31.6925 35.2275 32.5781 34.9605 32.5202 35.9483C32.4714 36.7828 31.7208 36.572 31.1713 36.6421C31.0735 37.5987 30.9763 38.5493 30.8761 39.5286C32.3688 39.5286 33.9446 39.5286 35.5056 39.5286C35.5056 38.6286 35.4966 37.7495 35.5083 36.8706C35.5182 36.127 35.7637 35.8781 36.5058 35.8767C39.7846 35.8708 43.0635 35.8713 46.3422 35.8766C46.9746 35.8776 47.3357 36.1604 47.304 36.6312C47.2635 37.2329 46.8517 37.3789 46.3261 37.3715C45.6964 37.3625 45.0665 37.3694 44.3612 37.3694C44.3612 37.7818 44.3612 38.1349 44.3612 38.4879C44.3612 38.8213 44.3612 39.1546 44.3612 39.5264C49.9775 39.5264 55.6171 39.5264 61.3059 39.5264C61.3208 39.3736 61.35 39.2126 61.3501 39.0513C61.3534 37.1049 61.3449 35.1584 61.3571 33.2121C61.3603 32.6881 61.244 32.2688 60.6519 32.1994C60.1779 32.1438 59.89 32.5389 59.8768 33.2103C59.8688 33.6121 59.8834 34.0148 59.8617 34.4156C59.8376 34.8647 59.584 35.1295 59.1308 35.1214C58.6813 35.1133 58.429 34.8479 58.4192 34.3959C58.4071 33.8462 58.3948 33.2945 58.4255 32.7462C58.4846 31.691 59.3234 30.8448 60.3744 30.7427C61.4798 30.6355 62.4683 31.2871 62.7374 32.3307C62.8154 32.6335 62.8391 32.9571 62.8406 33.2715C62.85 35.1121 62.8452 36.9527 62.8452 38.7934C62.8452 39.0218 62.8452 39.2502 62.8452 39.5645C63.2911 39.5645 63.6856 39.5551 64.0795 39.5666C64.7948 39.5876 65.0385 39.8226 65.039 40.524C65.043 45.5594 65.0395 50.5946 65.0436 55.63C65.0439 56.1401 64.8876 56.533 64.3198 56.5421C63.7443 56.5513 63.5792 56.1495 63.5792 55.6454C63.5788 53.5086 63.5783 51.3718 63.578 49.2348C63.5785 48.9883 63.5785 48.7408 63.5785 48.4646ZM45.823 41.1067C37.4423 41.1067 29.1032 41.1067 20.7669 41.1067C20.7669 47.4966 20.7669 53.8362 20.7669 60.2121C21.7369 60.2121 22.6752 60.2121 23.6846 60.2121C23.6846 59.9327 23.6846 59.6845 23.6846 59.4363C23.6846 55.6493 23.6831 51.8625 23.686 48.0755C23.6867 47.2042 23.8891 46.9717 24.6936 46.971C30.426 46.9656 36.1585 46.9658 41.8909 46.9709C42.6766 46.9715 42.899 47.2069 42.9028 48.0078C42.9099 49.531 42.9051 51.0542 42.9043 52.5774C42.9043 52.6831 42.907 52.7902 42.8914 52.8941C42.8268 53.3253 42.5867 53.613 42.1402 53.6007C41.7005 53.5884 41.4498 53.309 41.4245 52.8645C41.4077 52.5691 41.4186 52.2723 41.4186 51.9761C41.4182 50.8182 41.4184 49.6604 41.4184 48.4785C35.9742 48.4785 30.5955 48.4785 25.2051 48.4785C25.2051 51.4311 25.2051 54.3406 25.2051 57.2646C30.6188 57.2646 35.9985 57.2646 41.4253 57.2646C41.4253 56.7405 41.3424 56.2361 41.457 55.7814C41.5238 55.5164 41.8887 55.1878 42.1529 55.1545C42.3667 55.1276 42.6847 55.4621 42.8533 55.7073C42.965 55.8699 42.9031 56.1578 42.9038 56.3897C42.9068 57.6528 42.9053 58.9159 42.9053 60.2121C43.9148 60.2121 44.8531 60.2121 45.823 60.2121C45.823 53.8363 45.823 47.4968 45.823 41.1067ZM19.2244 60.2109C19.2244 57.2622 19.2244 54.3709 19.2244 51.4484C13.8143 51.4484 8.43849 51.4484 3.04588 51.4484C3.04588 54.3926 3.04588 57.2829 3.04588 60.2109C8.44137 60.2109 13.8026 60.2109 19.2244 60.2109ZM19.205 49.8918C19.205 46.9361 19.205 44.0157 19.205 41.0967C13.7912 41.0967 8.43086 41.0967 3.05266 41.0967C3.05266 44.0462 3.05266 46.9551 3.05266 49.8918C8.45476 49.8918 13.8153 49.8918 19.205 49.8918ZM63.5273 46.9393C63.5273 44.948 63.5273 43.0194 63.5273 41.0922C58.115 41.0922 52.7543 41.0922 47.3861 41.0922C47.3861 43.0562 47.3861 44.9839 47.3861 46.9393C52.7821 46.9393 58.1235 46.9393 63.5273 46.9393ZM54.6644 60.2488C54.6644 56.2546 54.6644 52.3613 54.6644 48.4742C52.2053 48.4742 49.8042 48.4742 47.3793 48.4742C47.3793 52.4072 47.3793 56.3012 47.3793 60.2488C47.7608 60.2488 48.095 60.2488 48.4291 60.2488C50.4971 60.2488 52.5651 60.2488 54.6644 60.2488ZM29.6011 35.1933C27.6022 35.1933 25.6738 35.1933 23.7125 35.1933C23.7125 36.2489 23.6655 37.2599 23.7275 38.2641C23.7755 39.0395 24.3477 39.5323 25.1185 39.5523C26.1307 39.5786 27.1444 39.579 28.1566 39.554C28.9755 39.5339 29.5589 38.9806 29.5918 38.1626C29.631 37.1946 29.6011 36.2238 29.6011 35.1933ZM7.48919 35.1877C7.48919 35.8347 7.42544 36.4481 7.50191 37.0436C7.68621 38.4793 8.83658 39.5016 10.2431 39.559C11.7409 39.6198 12.9866 38.6975 13.2677 37.2279C13.3921 36.577 13.3516 35.8945 13.3879 35.1879C11.3723 35.1877 9.4417 35.1877 7.48919 35.1877ZM41.3997 58.848C35.9622 58.848 30.5847 58.848 25.2109 58.848C25.2109 59.333 25.2109 59.7669 25.2109 60.1994C30.6284 60.1994 36.0063 60.1994 41.3997 60.1994C41.3997 59.7323 41.3997 59.3144 41.3997 58.848ZM36.9825 37.3986C36.9825 37.8421 36.9758 38.2387 36.9841 38.6349C36.9981 39.3106 37.2301 39.5545 37.8959 39.5615C38.93 39.5722 39.9644 39.5615 40.9984 39.5656C42.7961 39.5725 42.995 39.8062 42.8848 37.5335C42.8829 37.4969 42.8465 37.4618 42.8105 37.3986C40.9106 37.3986 38.9956 37.3986 36.9825 37.3986Z" fill="white"/>
<path d="M33.2822 27.0231C29.4977 27.0231 25.7131 27.0243 21.9287 27.0224C20.9165 27.0219 20.7386 26.843 20.7367 25.8496C20.7356 25.1308 20.7598 24.4107 20.7284 23.6932C20.7071 23.2018 20.8887 22.8597 21.2515 22.5413C23.1423 20.8817 25.0107 19.1966 26.9047 17.5408C27.2538 17.2356 27.3955 16.9245 27.3938 16.4562C27.3765 11.7832 27.3828 7.10997 27.3838 2.43675C27.384 1.32978 27.5296 1.18228 28.6137 1.18194C31.7851 1.18126 34.9564 1.18024 38.1278 1.18279C39.0093 1.18346 39.2066 1.37759 39.2071 2.26992C39.2105 6.98535 39.2156 11.701 39.199 16.4164C39.1973 16.9027 39.3374 17.235 39.7058 17.5563C41.5386 19.1536 43.3378 20.7895 45.1733 22.3836C45.6598 22.8061 45.9202 23.2478 45.8674 23.911C45.814 24.5835 45.8581 25.2635 45.8549 25.94C45.8508 26.8052 45.6414 27.0205 44.7622 27.0215C40.9357 27.0253 37.109 27.0231 33.2822 27.0231ZM42.9826 22.5962C43.0036 22.5426 43.0248 22.4889 43.0459 22.4353C42.9294 22.3475 42.8063 22.2671 42.6976 22.1706C41.2271 20.865 39.7704 19.5432 38.2818 18.2585C37.8721 17.9052 37.7214 17.5298 37.7233 16.999C37.7392 12.4731 37.7324 7.94702 37.7324 3.42097C37.7324 3.19158 37.7324 2.96218 37.7324 2.69311C34.7562 2.69311 31.8295 2.69311 28.8599 2.69311C28.8599 2.96726 28.8599 3.19802 28.8599 3.4286C28.8599 7.34123 28.7509 11.2583 28.9069 15.1648C28.9825 17.059 28.5116 18.405 26.9435 19.5072C25.7302 20.3601 24.6958 21.467 23.4741 22.5572C23.8242 22.5752 24.0268 22.5942 24.2294 22.5947C25.4559 22.5977 26.6824 22.5893 27.9089 22.6001C28.5462 22.6059 28.895 22.8919 28.8485 23.367C28.7936 23.9307 28.4065 24.0692 27.9033 24.0665C26.3386 24.058 24.7736 24.0636 23.2087 24.0636C22.899 24.0636 22.5894 24.0636 22.2769 24.0636C22.2769 24.6018 22.2769 25.0541 22.2769 25.5151C29.6515 25.5151 36.9781 25.5151 44.3183 25.5151C44.3183 25.0224 44.3183 24.5702 44.3183 24.0636C44.046 24.0636 43.8176 24.0636 43.5894 24.0636C39.8253 24.0636 36.0612 24.064 32.2971 24.0628C32.086 24.0628 31.8125 24.1306 31.6774 24.026C31.4407 23.8425 31.1583 23.5575 31.1425 23.2998C31.1294 23.0881 31.4394 22.7975 31.6739 22.6489C31.8444 22.5409 32.1257 22.5977 32.3575 22.5976C35.6775 22.5954 38.9974 22.596 42.3175 22.596C42.5392 22.5962 42.761 22.5962 42.9826 22.5962Z" fill="white"/>
<path d="M12.6244 1.18145C15.9236 1.18145 19.2228 1.18078 22.522 1.18196C23.5196 1.1823 23.6836 1.33778 23.6839 2.30385C23.6858 7.46486 23.6858 12.6259 23.6838 17.7869C23.6834 18.7251 23.5132 18.8967 22.568 18.8971C15.9273 18.8994 9.28668 18.8996 2.64588 18.8969C1.71829 18.8965 1.54891 18.716 1.54874 17.7687C1.54772 12.6077 1.54755 7.44672 1.54874 2.28571C1.54891 1.35711 1.72507 1.18264 2.66334 1.18213C5.98374 1.18044 9.30415 1.18145 12.6244 1.18145ZM22.1999 17.3954C22.1999 12.4558 22.1999 7.59795 22.1999 2.695C19.2482 2.695 16.3251 2.695 13.3977 2.695C13.3977 7.61677 13.3977 12.4923 13.3977 17.3954C16.3402 17.3954 19.2459 17.3954 22.1999 17.3954ZM11.8429 2.70534C8.86536 2.70534 5.96119 2.70534 3.06127 2.70534C3.06127 7.6383 3.06127 12.5148 3.06127 17.3788C6.01748 17.3788 8.92352 17.3788 11.8429 17.3788C11.8429 12.4651 11.8429 7.60355 11.8429 2.70534Z" fill="white"/>
<path d="M53.9587 1.18165C57.2791 1.18165 60.5993 1.18063 63.9197 1.18216C64.8659 1.18267 65.0429 1.35459 65.0433 2.27777C65.0446 7.45996 65.0448 12.642 65.0431 17.8242C65.0428 18.7065 64.8547 18.8964 63.9533 18.8967C57.2914 18.8996 50.6296 18.8996 43.9678 18.8962C43.1002 18.8957 42.9098 18.707 42.9093 17.8584C42.9062 12.634 42.9059 7.40961 42.9096 2.18503C42.9101 1.37883 43.1141 1.18368 43.9344 1.18283C47.2756 1.17995 50.6171 1.18165 53.9587 1.18165ZM44.4006 2.69333C44.4006 7.61069 44.4006 12.4838 44.4006 17.3795C47.3584 17.3795 50.2792 17.3795 53.1884 17.3795C53.1884 12.4541 53.1884 7.58017 53.1884 2.69333C50.2383 2.69333 47.3312 2.69333 44.4006 2.69333ZM54.7613 2.6901C54.7613 7.60815 54.7613 12.4853 54.7613 17.3903C57.7026 17.3903 60.6066 17.3903 63.5392 17.3903C63.5392 12.475 63.5392 7.60052 63.5392 2.6901C60.5913 2.6901 57.6849 2.6901 54.7613 2.6901Z" fill="white"/>
<path d="M58.3989 54.336C58.3989 54.6105 58.4922 54.9369 58.3755 55.1465C58.2257 55.4157 57.9067 55.7602 57.6618 55.7594C57.4169 55.7585 57.0202 55.4059 56.9622 55.1465C56.8498 54.6434 56.85 54.0809 56.959 53.5765C57.0171 53.3074 57.3679 52.9739 57.6429 52.9093C58.0631 52.8105 58.3406 53.1446 58.3966 53.5761C58.4289 53.8254 58.4025 54.0824 58.4025 54.3359C58.4013 54.336 58.4001 54.336 58.3989 54.336Z" fill="white"/>
<path d="M33.2912 49.929C34.6854 49.929 36.0797 49.9381 37.4739 49.9242C38.0063 49.919 38.4442 50.0651 38.4486 50.6544C38.453 51.247 38.0065 51.3987 37.481 51.3979C34.6925 51.3937 31.904 51.3937 29.1156 51.3979C28.5929 51.3987 28.1763 51.2577 28.1325 50.6609C28.0988 50.2001 28.4703 49.9329 29.1086 49.9305C30.5026 49.9256 31.897 49.9291 33.2912 49.929Z" fill="white"/>
<path d="M39.2294 41.8131C40.4504 41.8248 41.4296 42.825 41.4141 44.0437C41.3986 45.2515 40.3768 46.2512 39.1728 46.2363C37.9714 46.2213 36.9641 45.1861 36.986 43.9886C37.0084 42.7668 38.004 41.8012 39.2294 41.8131ZM38.4414 44.1462C38.6174 44.298 38.8412 44.6308 39.1338 44.7103C39.5512 44.8238 39.8622 44.5401 39.908 44.0883C39.9537 43.6378 39.7237 43.3494 39.2739 43.3041C38.8283 43.2592 38.5601 43.4921 38.4414 44.1462Z" fill="white"/>
<path d="M25.174 44.0161C25.1788 42.792 26.1628 41.8121 27.3868 41.813C28.6099 41.8138 29.6039 42.8016 29.6031 44.0157C29.6022 45.2192 28.5926 46.2305 27.3858 46.2366C26.1879 46.2426 25.1694 45.22 25.174 44.0161ZM27.3483 43.2853C26.9353 43.3484 26.6552 43.5656 26.6749 44.0307C26.6938 44.4815 26.959 44.7433 27.4054 44.7314C27.85 44.7195 28.106 44.4491 28.0992 43.9957C28.0921 43.5327 27.804 43.3264 27.3483 43.2853Z" fill="white"/>
<path d="M35.4929 43.9962C35.5024 45.2234 34.5181 46.2263 33.2957 46.2347C32.1119 46.243 31.1118 45.2581 31.0928 44.0655C31.0728 42.8168 32.0261 41.8257 33.2594 41.8131C34.508 41.8001 35.4832 42.7534 35.4929 43.9962ZM33.4342 43.1875C33.3374 43.1876 33.2406 43.188 33.1438 43.1881C32.9486 43.4596 32.6351 43.7119 32.5868 44.0074C32.5202 44.4146 32.8198 44.7208 33.2654 44.7337C33.7428 44.7476 34.0627 44.4443 33.999 44.0023C33.9566 43.7095 33.6323 43.4576 33.4342 43.1875Z" fill="white"/>
<path d="M11.1199 56.5565C10.6355 56.5556 10.1506 56.5675 9.66673 56.5521C9.21879 56.5378 8.94887 56.2788 8.94056 55.8398C8.93208 55.396 9.20471 55.121 9.64774 55.1116C10.637 55.0906 11.6274 55.0915 12.6168 55.1079C13.0578 55.1152 13.3459 55.38 13.3444 55.8207C13.3428 56.2891 13.0516 56.5484 12.5734 56.5556C12.089 56.5633 11.6045 56.5575 11.1199 56.5565Z" fill="white"/>
<path d="M11.1181 44.7495C11.6034 44.7495 12.0893 44.7349 12.5737 44.7538C13.0391 44.7719 13.3431 45.0242 13.3432 45.5004C13.3434 45.9474 13.0443 46.2141 12.6169 46.2254C11.6262 46.2519 10.6335 46.2541 9.64323 46.222C9.21766 46.2083 8.92927 45.9345 8.93774 45.4813C8.94622 45.0332 9.22801 44.7822 9.66272 44.7582C10.1464 44.7314 10.6329 44.7521 11.1181 44.7521C11.1181 44.7512 11.1181 44.7504 11.1181 44.7495Z" fill="white"/>
<path d="M55.4593 44.7418C55.206 44.7409 54.9515 44.7564 54.6997 44.7374C54.2555 44.7041 53.9948 44.4542 53.9914 44.0058C53.9881 43.5833 54.2428 43.323 54.6507 43.2954C55.1758 43.2596 55.7068 43.2574 56.2317 43.2925C56.6693 43.3218 56.9335 43.5948 56.9069 44.0504C56.8806 44.5005 56.5981 44.7235 56.156 44.7409C55.924 44.7503 55.6914 44.7428 55.4593 44.7418Z" fill="white"/>
<path d="M53.9768 54.3448C53.977 54.5561 53.9821 54.7675 53.976 54.9788C53.9621 55.4674 53.754 55.8031 53.2249 55.8048C52.7252 55.8063 52.5141 55.4779 52.4924 55.0247C52.4711 54.582 52.476 54.1372 52.4914 53.694C52.5075 53.2355 52.7318 52.9003 53.2116 52.892C53.723 52.8832 53.9602 53.2164 53.9753 53.7111C53.9819 53.922 53.9766 54.1334 53.9768 54.3448Z" fill="white"/>
<path d="M15.5507 10.0818C15.55 10.3348 15.5711 10.5898 15.5453 10.84C15.5024 11.2559 15.2532 11.4921 14.8327 11.4916C14.4136 11.4911 14.146 11.2578 14.1218 10.841C14.0913 10.3158 14.0382 9.77169 14.1438 9.26695C14.1999 8.9989 14.539 8.65981 14.8074 8.5969C15.2221 8.49975 15.5112 8.81138 15.5473 9.26017C15.5694 9.53246 15.5514 9.80781 15.5507 10.0818Z" fill="white"/>
<path d="M9.68177 9.9857C9.68177 9.73274 9.59293 9.42772 9.70296 9.23902C9.86013 8.96995 10.1462 8.64289 10.4095 8.61136C10.6175 8.58643 11.0331 8.94011 11.0773 9.17781C11.1797 9.72765 11.1422 10.3109 11.1049 10.8768C11.0775 11.2951 10.7847 11.5115 10.3666 11.4918C9.94694 11.4721 9.71246 11.2231 9.68245 10.8078C9.66278 10.535 9.67872 10.2599 9.67872 9.9857C9.67974 9.9857 9.68075 9.9857 9.68177 9.9857Z" fill="white"/>
<path d="M51.0444 10.0385C51.0446 9.76446 50.9524 9.43995 51.0678 9.2292C51.2152 8.95996 51.5154 8.63799 51.7777 8.61104C51.9871 8.5895 52.3954 8.94708 52.439 9.18665C52.5393 9.73734 52.5388 10.3308 52.4398 10.8818C52.3971 11.119 52.0349 11.4081 51.7703 11.4699C51.3754 11.5623 51.0956 11.2778 51.0499 10.8594C51.0202 10.589 51.0443 10.3124 51.0444 10.0385Z" fill="white"/>
<path d="M56.9092 10.0376C56.9092 10.3117 56.9363 10.5891 56.9029 10.859C56.8519 11.2709 56.5763 11.563 56.1799 11.4706C55.9156 11.409 55.5572 11.1227 55.5106 10.8841C55.4073 10.3562 55.3988 9.77986 55.5031 9.25342C55.5552 8.99062 55.9115 8.65577 56.1816 8.59931C56.5967 8.5125 56.8785 8.82972 56.9102 9.27851C56.9278 9.53029 56.9134 9.78444 56.9134 10.0374C56.9117 10.0376 56.9105 10.0376 56.9092 10.0376Z" fill="white"/>
</g>
<defs>
<clipPath id="clip0_1_1446">
<rect width="65.106" height="65.106" fill="white" transform="translate(0.644409 0.327881)"/>
</clipPath>
</defs>
</svg>
