<svg width="82" height="42" viewBox="0 0 82 42" fill="none" xmlns="http://www.w3.org/2000/svg">
<path d="M1.19015 0.678794V18.9478H8.16603C13.648 18.9478 16.8764 15.5421 16.8764 9.74364C16.8764 3.94518 13.648 0.678794 8.16603 0.678794H1.19015ZM5.01359 3.83123H7.71025C11.0779 3.83123 12.977 5.93286 12.977 9.7563C12.977 13.7063 11.1286 15.7827 7.71025 15.7827H5.01359V3.83123ZM25.1183 7.81926C26.7642 7.81926 27.8909 9.00934 27.9669 10.7438H22.2064C22.333 9.04732 23.4978 7.81926 25.1183 7.81926ZM28.0175 14.7951C27.6757 15.8333 26.6376 16.5043 25.2829 16.5043C23.3965 16.5043 22.1684 15.175 22.1684 13.2379V13.01H31.5245V11.8832C31.5245 7.75596 29.0304 5.08461 25.0803 5.08461C21.067 5.08461 18.5349 7.89522 18.5349 12.2251C18.5349 16.5676 21.0417 19.2389 25.2196 19.2389C28.5746 19.2389 31.0054 17.4538 31.4105 14.7951H28.0175ZM33.2083 9.36383C33.2083 11.3642 34.525 12.7062 37.095 13.2886L39.6018 13.8456C40.8172 14.1368 41.273 14.5166 41.273 15.2003C41.273 16.0865 40.4247 16.6436 39.0194 16.6436C37.5508 16.6436 36.6519 15.9852 36.4747 14.8458H32.8665C33.069 17.4918 35.2973 19.2389 38.9181 19.2389C42.501 19.2389 44.9572 17.4791 44.9572 14.8078C44.9572 12.7821 43.8557 11.706 41.1337 11.0983L38.5383 10.5412C37.3483 10.2627 36.7659 9.80694 36.7659 9.13594C36.7659 8.26237 37.6015 7.68 38.8802 7.68C40.2475 7.68 41.1211 8.351 41.197 9.43979H44.6027C44.552 6.80643 42.3365 5.08461 38.9308 5.08461C35.4492 5.08461 33.2083 6.78111 33.2083 9.36383ZM46.8689 18.9478H50.5657V5.3758H46.8689V18.9478ZM48.7173 3.88188C49.8314 3.88188 50.6923 3.03363 50.6923 1.97015C50.6923 0.894021 49.8314 0.0584343 48.7173 0.0584343C47.6032 0.0584343 46.7423 0.894021 46.7423 1.97015C46.7423 3.03363 47.6032 3.88188 48.7173 3.88188ZM59.3014 16.0612C57.4656 16.0612 56.3262 14.6179 56.3262 12.1365C56.3262 9.66768 57.4783 8.12311 59.3014 8.12311C61.1498 8.12311 62.3272 9.693 62.3272 12.1365C62.3272 14.5926 61.1498 16.0612 59.3014 16.0612ZM59.2381 24.0626C63.3021 24.0626 66.0114 21.9989 66.0114 18.7578V5.3758H62.3652V7.7433H62.3019C61.5929 6.18607 60.061 5.16058 58.1113 5.16058C54.6677 5.16058 52.5407 7.8066 52.5407 12.1111C52.5407 16.3524 54.731 18.9098 58.048 18.9098C60.0104 18.9098 61.6056 17.9223 62.2386 16.479H62.3146V18.8591C62.3146 20.429 61.2511 21.4925 59.3394 21.4925C57.9341 21.4925 56.8706 20.8468 56.5794 19.9099H52.9585C53.2497 22.3281 55.6679 24.0626 59.2381 24.0626ZM68.4295 18.9478H72.1264V11.1616C72.1264 9.40181 73.1772 8.18641 74.8357 8.18641C76.4942 8.18641 77.3298 9.19924 77.3298 10.9717V18.9478H81.0266V10.1994C81.0266 7.02166 79.3302 5.1226 76.317 5.1226C74.228 5.1226 72.7974 6.11011 72.0757 7.79394H71.9998V5.3758H68.4295V18.9478ZM6.90495 41.2589C5.41838 41.2589 4.18246 40.9823 3.19718 40.4292C2.22918 39.8588 1.41675 39.1328 0.759896 38.2512L1.48589 37.6808C2.12546 38.5105 2.8601 39.176 3.68982 39.6773C4.53681 40.1613 5.61717 40.4033 6.93088 40.4033C8.45202 40.4033 9.6188 40.0575 10.4312 39.3661C11.2609 38.6574 11.6758 37.6289 11.6758 36.2806C11.6758 35.6065 11.5721 35.0361 11.3647 34.5693C11.1572 34.1026 10.872 33.7223 10.509 33.4285C10.146 33.1173 9.72252 32.8753 9.23852 32.7025C8.75452 32.5123 8.23595 32.3654 7.68281 32.2617L5.9456 31.9246C5.06403 31.7518 4.32074 31.5184 3.71574 31.2246C3.11075 30.9134 2.61811 30.5591 2.23782 30.1615C1.87482 29.7466 1.60689 29.2972 1.43404 28.8132C1.27847 28.3119 1.20068 27.7761 1.20068 27.2056C1.20068 26.4278 1.33032 25.745 1.58961 25.1573C1.86618 24.5696 2.24646 24.0856 2.73046 23.7053C3.23175 23.3077 3.8281 23.0139 4.51953 22.8237C5.21096 22.6336 5.98017 22.5385 6.82717 22.5385C8.17545 22.5385 9.29037 22.7719 10.1719 23.2386C11.0708 23.7053 11.7882 24.3362 12.324 25.1314L11.598 25.6499C11.0794 24.9239 10.4312 24.3708 9.65337 23.9905C8.87552 23.5929 7.91616 23.3942 6.77531 23.3942C5.32331 23.3942 4.1911 23.7053 3.37867 24.3276C2.56625 24.9499 2.16003 25.9006 2.16003 27.1797C2.16003 27.8193 2.26375 28.3638 2.47118 28.8132C2.6786 29.2454 2.95518 29.6084 3.30089 29.9022C3.66389 30.1961 4.08739 30.4381 4.57139 30.6282C5.05538 30.8011 5.5826 30.9394 6.15302 31.0431L7.89023 31.3801C8.80637 31.5703 9.56694 31.8209 10.1719 32.1321C10.7942 32.4432 11.2869 32.8062 11.6499 33.2211C12.0129 33.6359 12.2635 34.094 12.4018 34.5953C12.5574 35.0966 12.6351 35.6324 12.6351 36.2028C12.6351 37.845 12.1166 39.0982 11.0794 39.9625C10.0596 40.8268 8.66809 41.2589 6.90495 41.2589ZM18.5339 40.9478C17.7906 40.9478 17.419 40.5848 17.419 39.8588V28.5799H15.0335V27.7761H16.7448C17.0387 27.7761 17.2288 27.7156 17.3152 27.5946C17.419 27.4736 17.4708 27.2661 17.4708 26.9723V24.0424H18.3265V27.7761H21.4119V28.5799H18.3265V40.144H21.2045V40.9478H18.5339ZM33.5546 38.9253H33.4509C33.3299 39.2192 33.157 39.513 32.9323 39.8069C32.7249 40.0835 32.457 40.3341 32.1285 40.5588C31.8174 40.7663 31.4371 40.9305 30.9877 41.0515C30.5382 41.1898 30.0197 41.2589 29.432 41.2589C27.98 41.2589 26.865 40.8354 26.0872 39.9884C25.3093 39.1241 24.9204 37.8709 24.9204 36.2288V27.7761H25.8279V36.0732C25.8279 37.5943 26.1563 38.7093 26.8132 39.418C27.47 40.1094 28.4121 40.4551 29.6394 40.4551C30.1407 40.4551 30.6247 40.386 31.0914 40.2477C31.5754 40.1094 31.9989 39.9106 32.3619 39.6513C32.7249 39.3748 33.0101 39.029 33.2175 38.6142C33.4422 38.182 33.5546 37.6808 33.5546 37.1103V27.7761H34.4621V40.9478H33.5546V38.9253ZM48.2455 38.8994H48.1677C47.8739 39.5217 47.3812 40.0748 46.6898 40.5588C45.9984 41.0255 45.0995 41.2589 43.9932 41.2589C42.2647 41.2589 40.9164 40.6798 39.9484 39.5217C38.9977 38.3463 38.5223 36.6263 38.5223 34.3619C38.5223 32.0975 38.9977 30.3862 39.9484 29.2281C40.9164 28.0526 42.2647 27.4649 43.9932 27.4649C45.0995 27.4649 45.9984 27.6983 46.6898 28.165C47.3812 28.6317 47.8739 29.1849 48.1677 29.8244H48.2455V21.7607H49.153V40.9478H48.2455V38.8994ZM44.1229 40.4292C44.676 40.4292 45.2032 40.3514 45.7045 40.1958C46.2058 40.0403 46.6379 39.8155 47.0009 39.5217C47.3812 39.2278 47.6837 38.8821 47.9084 38.4845C48.1332 38.0697 48.2455 37.6116 48.2455 37.1103V31.5616C48.2455 31.0776 48.1332 30.6369 47.9084 30.2393C47.6837 29.8244 47.3812 29.4787 47.0009 29.2021C46.6379 28.9083 46.2058 28.6836 45.7045 28.528C45.2032 28.3551 44.676 28.2687 44.1229 28.2687C42.6536 28.2687 41.5127 28.7527 40.7003 29.7207C39.9052 30.6714 39.5076 31.9678 39.5076 33.61V35.1138C39.5076 36.756 39.9052 38.0524 40.7003 39.0031C41.5127 39.9538 42.6536 40.4292 44.1229 40.4292ZM54.8154 23.7053C54.5388 23.7053 54.34 23.6448 54.219 23.5238C54.098 23.3855 54.0375 23.2213 54.0375 23.0312V22.7978C54.0375 22.6077 54.0894 22.4521 54.1931 22.3311C54.3141 22.1928 54.5129 22.1237 54.7894 22.1237C55.066 22.1237 55.2648 22.1928 55.3858 22.3311C55.5068 22.4521 55.5673 22.6077 55.5673 22.7978V23.0312C55.5673 23.2213 55.5068 23.3855 55.3858 23.5238C55.2821 23.6448 55.0919 23.7053 54.8154 23.7053ZM54.3486 27.7761H55.2561V40.9478H54.3486V27.7761ZM64.9107 41.2589C63.1821 41.2589 61.8165 40.6712 60.814 39.4958C59.8287 38.3203 59.336 36.6091 59.336 34.3619C59.336 32.0975 59.8287 30.3862 60.814 29.2281C61.8165 28.0526 63.1821 27.4649 64.9107 27.4649C66.6392 27.4649 67.9961 28.0526 68.9814 29.2281C69.984 30.3862 70.4853 32.0975 70.4853 34.3619C70.4853 36.6091 69.984 38.3203 68.9814 39.4958C67.9961 40.6712 66.6392 41.2589 64.9107 41.2589ZM64.9107 40.4551C66.3799 40.4551 67.5122 39.9798 68.3073 39.029C69.1024 38.061 69.5 36.7387 69.5 35.062V33.6618C69.5 31.9678 69.1024 30.6455 68.3073 29.6948C67.5122 28.7441 66.3799 28.2687 64.9107 28.2687C63.4414 28.2687 62.3092 28.7441 61.514 29.6948C60.7189 30.6455 60.3213 31.9678 60.3213 33.6618V35.062C60.3213 36.7387 60.7189 38.061 61.514 39.029C62.3092 39.9798 63.4414 40.4551 64.9107 40.4551Z" fill="#84BE63"/>
</svg>
